<svg fill-rule="evenodd" clip-rule="evenodd" stroke-linejoin="round" stroke-miterlimit="1.414" xmlns="http://www.w3.org/2000/svg" aria-label="terminal" viewBox="0 0 32 32" preserveAspectRatio="xMidYMid meet" fill="currentColor" width="256" height="256"><path d="M6.291 21.048C6.05 19.836 6 18.256 6 16C6 13.744 6.05 12.164 6.291 10.952C6.507 9.842 6.824 9.375 7.155 9.099C7.539 8.779 8.249 8.458 9.752 8.255C11.283 8.046 13.274 8 16 8C18.725 8 20.717 8.046 22.248 8.255C23.751 8.458 24.461 8.779 24.845 9.099C25.176 9.375 25.493 9.842 25.709 10.952C25.95 12.164 26 13.744 26 16C26 18.256 25.95 19.836 25.709 21.048C25.493 22.158 25.176 22.625 24.845 22.901C24.461 23.221 23.751 23.542 22.248 23.744C20.717 23.954 18.725 24 16 24C13.274 24 11.283 23.954 9.752 23.744C8.249 23.542 7.539 23.221 7.155 22.901C6.824 22.625 6.507 22.158 6.291 21.048ZM16 26C5 26 4 25.167 4 16C4 6.833 5 6 16 6C27 6 28 6.833 28 16C28 25.167 27 26 16 26ZM15 20C15 19.448 15.4135 19 15.9231 19H22.0769C22.5865 19 23 19.448 23 20C23 20.552 22.5865 21 22.0769 21H15.9231C15.4135 21 15 20.552 15 20ZM14.5 16.2505C14.5 15.9145 14.325 15.6335 14.168 15.4255L14.167 15.4235C13.3318 14.3376 12.1652 13.4472 11.0682 12.6099L11.065 12.6075C10.886 12.4715 10.709 12.3355 10.535 12.2015L10.534 12.2005C10.14 11.8955 9.55705 11.9425 9.22405 12.3135C8.88105 12.6955 8.94005 13.2665 9.34505 13.5795C9.46908 13.6757 9.59457 13.7719 9.72051 13.8684C9.7753 13.9104 9.83017 13.9524 9.88505 13.9945C10.805 14.6975 11.739 15.4115 12.464 16.2505C11.73 17.1015 10.813 17.8005 9.88805 18.5055L9.88605 18.5065C9.70605 18.6435 9.52505 18.7815 9.34505 18.9205C8.94105 19.2335 8.88105 19.8045 9.22405 20.1865C9.55705 20.5585 10.141 20.6035 10.534 20.2995C10.718 20.1575 10.903 20.0165 11.09 19.8745C12.189 19.0385 13.318 18.1795 14.167 17.0765L14.168 17.0755C14.325 16.8675 14.5 16.5855 14.5 16.2505Z"/></svg>
